<svg fill="none" height="24" viewBox="0 0 24 24" width="24" xmlns="http://www.w3.org/2000/svg"><g fill="#c5c7d3"><path d="m21.037 0h-18.07404c-1.63545 0-2.96296 1.32751-2.96296 2.96296v2.42085h24v-2.42085c0-1.63545-1.3275-2.96296-2.963-2.96296zm-2.3466 3.11116h-.8385v-.83851h.8385zm1.7303 0h-.8414v-.83851h.8414zm1.6297 0h-.8414v-.83851h.8414z"/><path d="m0 5.77783v15.25927c0 1.6354 1.32751 2.9629 2.96296 2.9629h18.07404c1.6355 0 2.963-1.3275 2.963-2.9629v-15.25927zm4.05053 13.43117h-1.43413v-1.431h1.43413zm0-3.7037h-1.43413v-1.431h1.43413zm0-3.9999h-1.43413v-1.431h1.43413zm17.38047 7.7038h-15.13497v-1.4311h15.13497zm0-3.7038h-15.13497v-1.431h15.13497zm0-3.9998h-15.13497v-1.4311h15.13497z"/></g></svg>