<svg fill="none" height="12" viewBox="0 0 12 12" width="12" xmlns="http://www.w3.org/2000/svg"><g fill="#c5c7d3"><path d="m10.6663 1.32214h-.5554v.66109c0 .54669-.44843.99161-.99984.99161-.5514 0-1.00009-.44476-1.00009-.99161v-.66109h-1.11104v.66109c0 .54669-.44852.99161-1 .99161-.55131 0-1-.44476-1-.99161v-.66109h-1.11104v.66109c0 .54669-.44871.99161-1 .99161-.55131 0-.99983-.44476-.99983-.99161v-.66109h-.55563c-.735324 0-1.33343.5929-1.33343 1.32215v8.03371c0 .7291.598106 1.322 1.33343 1.322h9.33297c.7352 0 1.3335-.5929 1.3335-1.322l.0001-8.03371c0-.72906-.5983-1.32205-1.3335-1.32205zm.4445 9.35586c0 .2428-.1993.4406-.4445.4406h-9.33292c-.24498 0-.444385-.1977-.444385-.4406v-6.27113c0-.24331.199025-.44066.444385-.44066h9.33292c.2456 0 .4445.19717.4445.44066z"/><path d="m2.88909 2.64423c.36833 0 .66668-.29604.66668-.66109v-1.322053c0-.365043-.29855-.661087-.66668-.661087s-.66668.296044-.66668.661087v1.322153c0 .36504.29855.66099.66668.66099z"/><path d="m6.00018 2.64423c.36813 0 .66639-.29604.66639-.66109v-1.322053c0-.365043-.29826-.661087-.66639-.661087-.36833 0-.66668.296044-.66668.661087v1.322153c.00018.36504.29845.66099.66668.66099z"/><path d="m9.11083 2.64423c.36813 0 .66677-.29604.66677-.66109v-1.322053c0-.365043-.29864-.661087-.66677-.661087-.36814 0-.66649.296044-.66649.661087v1.322153c0 .36504.29835.66099.66649.66099z"/><path d="m3.05998 4.89441h-.74394c-.2055 0-.37207.16518-.37207.36895v.7377c0 .20359.16657.36895.37207.36895h.74394c.2055 0 .37207-.16518.37207-.36895v-.73789c0-.20378-.16657-.36876-.37207-.36876z"/><path d="m5.26787 4.89441h-.74395c-.20549 0-.37206.16518-.37206.36895v.7377c0 .20359.16657.36895.37206.36895h.74395c.2055 0 .37207-.16518.37207-.36895v-.73789c-.00019-.20378-.16667-.36876-.37207-.36876z"/><path d="m7.47598 4.89441h-.74368c-.2055 0-.37207.16518-.37207.36895v.7377c0 .20359.16648.36895.37207.36895h.74368c.20559 0 .37216-.16518.37216-.36895v-.73789c-.00009-.20378-.16657-.36876-.37216-.36876z"/><path d="m9.68413 4.89441h-.74395c-.20531 0-.37206.16518-.37206.36895v.7377c0 .20359.16657.36895.37206.36895h.74395c.2055 0 .37217-.16518.37217-.36895v-.73789c-.0003-.20378-.16676-.36876-.37217-.36876z"/><path d="m3.06011 6.80493h-.74395c-.2055 0-.37207.16518-.37207.36905v.73761c0 .20359.16658.36895.37207.36895h.74395c.20549 0 .37207-.16518.37207-.36895v-.73761c0-.20396-.16658-.36905-.37207-.36905z"/><path d="m5.26787 6.80481h-.74395c-.20549 0-.37206.16518-.37206.36904v.73762c0 .20358.16657.36894.37206.36894h.74395c.2055 0 .37207-.16517.37207-.36894v-.73762c-.00019-.20396-.16667-.36904-.37207-.36904z"/><path d="m7.47598 6.80481h-.74368c-.2055 0-.37207.16518-.37207.36904v.73762c0 .20358.16648.36894.37207.36894h.74368c.20559 0 .37216-.16517.37216-.36894v-.73762c-.00009-.20396-.16657-.36904-.37216-.36904z"/><path d="m9.68413 6.80481h-.74395c-.20531 0-.37206.16518-.37206.36904v.73762c0 .20358.16657.36894.37206.36894h.74395c.2055 0 .37217-.16517.37217-.36894v-.73762c-.0003-.20396-.16676-.36904-.37217-.36904z"/><path d="m3.06011 8.71472h-.74395c-.2055 0-.37207.16518-.37207.36895v.73761c0 .20382.16658.36902.37207.36902h.74395c.20549 0 .37207-.1651.37207-.36902v-.73761c0-.20359-.16658-.36895-.37207-.36895z"/><path d="m5.26787 8.71472h-.74395c-.20549 0-.37206.16518-.37206.36895v.73761c0 .20382.16657.36902.37206.36902h.74395c.2055 0 .37207-.1651.37207-.36902l-.00009-.73761c-.0001-.20359-.16658-.36895-.37198-.36895z"/><path d="m7.47598 8.71472h-.74368c-.2055 0-.37207.16518-.37207.36895v.73761c0 .20382.16648.36902.37207.36902h.74368c.20559 0 .37217-.1651.37217-.36902l.00009-.73761c-.00019-.20359-.16667-.36895-.37226-.36895z"/></g></svg>