<svg fill="none" height="20" viewBox="0 0 20 20" width="20" xmlns="http://www.w3.org/2000/svg"><path d="m.688732.688732c.918328-.918321 2.407168-.918293 3.325458 0l5.9858 5.985838 5.98581-5.985838c.9183-.918293 2.4071-.918326 3.3255 0 .9183.918328.9183 2.407188 0 3.325468l-5.9859 5.9858 5.9859 5.9858c.9183.9183.9183 2.4072 0 3.3255-.9184.9183-2.4072.9183-3.3255-.0001l-5.9858-5.9857-5.98582 5.9858c-.91829.9183-2.40712.9183-3.325448-.0001-.918321-.9183-.918293-2.4071-.000004-3.3254l5.985822-5.9858-5.985818-5.9858c-.918293-.91829-.918326-2.40714 0-3.325468z" fill="#c5c7d3"/></svg>