<svg fill="none" height="157" viewBox="0 0 229 157" width="229" xmlns="http://www.w3.org/2000/svg" xmlns:xlink="http://www.w3.org/1999/xlink"><clipPath id="a"><path d="m0 0h241.68v241.68h-241.68z" transform="matrix(.707107 -.707107 -.707107 -.707107 170.894 156.787)"/></clipPath><g clip-path="url(#a)" fill="#696969" opacity=".4"><path d="m220.075 13.7633h-2.73v-2.73h2.73z"/><path d="m219.953 30.4948h-2.52v-2.5201h2.52z"/><path d="m219.859 47.2687h-2.3v-2.3001h2.3z"/><path d="m219.746 63.986h-2.09v-2.09h2.09z"/><path d="m219.652 80.7599h-1.87v-1.87h1.87z"/><path d="m206.385 13.72h-2.731v-2.73h2.731z"/><path d="m206.308 30.4867h-2.52v-2.52h2.52z"/><path d="m206.182 47.2394h-2.3v-2.3h2.3z"/><path d="m206.084 63.985h-2.09v-2.09h2.09z"/><path d="m205.99 80.7689h-1.87v-1.87h1.87z"/><path d="m192.729 13.712h-2.73v-2.73h2.73z"/><path d="m192.645 30.4858h-2.52v-2.52h2.52z"/><path d="m192.509 47.2031h-2.3v-2.3h2.3z"/><path d="m192.432 63.9941h-2.09v-2.09h2.09z"/><path d="m192.3 80.7114h-1.87v-1.87h1.87z"/><path d="m179.067 13.7111h-2.73v-2.73h2.73z"/><path d="m178.983 30.4949h-2.52v-2.52h2.52z"/><path d="m178.854 47.2194h-2.3v-2.3h2.3z"/><path d="m178.777 63.9861h-2.09v-2.09h2.09z"/><path d="m178.64 80.7035h-1.87v-1.87h1.87z"/><path d="m165.422 13.7272h-2.73v-2.7301h2.73z"/><path d="m165.321 30.494h-2.52v-2.52h2.52z"/><path d="m165.199 47.2113h-2.3v-2.3h2.3z"/><path d="m165.107 63.9781h-2.09v-2.09h2.09z"/><path d="m164.978 80.7025h-1.87v-1.87h1.87z"/><path d="m151.774 13.7404h-2.73v-2.73h2.73z"/><path d="m151.676 30.486h-2.52v-2.52h2.52z"/><path d="m151.55 47.2386h-2.3v-2.2999h2.3z"/><path d="m151.452 63.9843h-2.09v-2.09h2.09z"/><path d="m151.358 80.7582h-1.87v-1.87h1.87z"/><path d="m138.126 13.7537h-2.73v-2.7301h2.73z"/><path d="m138.028 30.5134h-2.52v-2.52h2.52z"/><path d="m137.919 47.259h-2.3v-2.3h2.3z"/><path d="m137.821 64.0146h-2.09v-2.09h2.09z"/><path d="m137.703 80.7603h-1.87v-1.87h1.87z"/><path d="m124.435 13.7102h-2.73v-2.73h2.73z"/><path d="m124.351 30.4841h-2.52v-2.5199h2.52z"/><path d="m124.243 47.2397h-2.3v-2.2999h2.3z"/><path d="m124.145 63.9854h-2.09v-2.09h2.09z"/><path d="m124.03 80.738h-1.87v-1.87h1.87z"/><path d="m110.773 13.7194h-2.73v-2.7301h2.73z"/><path d="m110.689 30.4933h-2.52v-2.52h2.52z"/><path d="m110.56 47.2177h-2.3v-2.3h2.3z"/><path d="m110.483 63.9845h-2.09v-2.09h2.09z"/><path d="m110.346 80.7018h-1.87v-1.87h1.87z"/><path d="m97.1279 13.7255h-2.7299v-2.73h2.7299z"/><path d="m97.0227 30.464h-2.52v-2.52h2.52z"/><path d="m96.9045 47.2096h-2.3v-2.3h2.3z"/><path d="m96.8205 63.9835h-2.09v-2.0899h2.09z"/><path d="m96.684 80.7008h-1.87v-1.87h1.87z"/></g></svg>