<svg fill="none" height="15" viewBox="0 0 15 15" width="15" xmlns="http://www.w3.org/2000/svg"><path clip-rule="evenodd" d="m13.8479 0h-12.6958c-.636239 0-1.1521.516356-1.1521 1.1521v12.6958c0 .6362.516356 1.1521 1.1521 1.1521h12.6958c.6362 0 1.1521-.5164 1.1521-1.1521v-12.6958c0-.636239-.5164-1.1521-1.1521-1.1521zm-2.8451 5.67877-1.61051-1.61051-4.91507 4.87582 1.63019 1.63022zm-5.42905 5.37713-1.7024.4785c-.21682.061-.41674-.1389-.35579-.3557l.47856-1.70232c.0134-.04769.03875-.09103.07376-.12592l1.63177 1.63174c-.03501.0349-.07835.0604-.12592.0737zm6.24465-6.19245c.2255-.2254.2241-.59241.0032-.81346l-.7954-.79522c-.2237-.22383-.5872-.22456-.815.00145l-.40929.40589 1.60899 1.60897z" fill="#c5c7d3" fill-rule="evenodd"/></svg>