<svg fill="none" height="64" viewBox="0 0 79 64" width="79" xmlns="http://www.w3.org/2000/svg" xmlns:xlink="http://www.w3.org/1999/xlink"><clipPath id="a"><path d="m0 0h78.04v63.81h-78.04z"/></clipPath><g clip-path="url(#a)" fill="#3db0f6" opacity=".3"><path d="m2.2 63.81c1.21503 0 2.2-.985 2.2-2.2 0-1.2151-.98497-2.2-2.2-2.2-1.215026 0-2.2.9849-2.2 2.2 0 1.215.984974 2.2 2.2 2.2z"/><path d="m16.93 63.81c1.215 0 2.2-.985 2.2-2.2 0-1.2151-.985-2.2-2.2-2.2s-2.2.9849-2.2 2.2c0 1.215.985 2.2 2.2 2.2z"/><path d="m31.66 63.81c1.215 0 2.2-.985 2.2-2.2 0-1.2151-.985-2.2-2.2-2.2s-2.2.9849-2.2 2.2c0 1.215.985 2.2 2.2 2.2z"/><path d="m46.38 59.41c-.4379-.002-.8666.1262-1.2315.3683-.365.2421-.6498.5871-.8183.9913-.1685.4043-.2131.8494-.1282 1.2791.085.4296.2957.8243.6053 1.134.3097.3096.7044.5203 1.134.6053.4297.0849.8749.0404 1.2791-.1282.4042-.1685.7493-.4533.9913-.8183.2421-.3649.3703-.7935.3683-1.2315 0-.5835-.2318-1.143-.6443-1.5556-.4126-.4126-.9722-.6444-1.5557-.6444z"/><path d="m61.11 59.41c-.4379-.002-.8666.1262-1.2316.3683-.3649.2421-.6497.5871-.8183.9913-.1685.4043-.2131.8494-.1281 1.2791.085.4296.2956.8243.6053 1.134.3097.3096.7044.5203 1.134.6053.4296.0849.8748.0404 1.279-.1282.4043-.1685.7493-.4533.9914-.8183.2421-.3649.3703-.7935.3683-1.2315-.0026-.5827-.2353-1.1407-.6473-1.5527s-.97-.6447-1.5527-.6473z"/><path d="m75.84 63.81c1.215 0 2.2-.985 2.2-2.2 0-1.2151-.985-2.2-2.2-2.2s-2.2.9849-2.2 2.2c0 1.215.985 2.2 2.2 2.2z"/><path d="m2.2 51.93c1.21503 0 2.2-.9849 2.2-2.2 0-1.215-.98497-2.2-2.2-2.2-1.215026 0-2.2.985-2.2 2.2 0 1.2151.984974 2.2 2.2 2.2z"/><path d="m16.93 51.93c1.215 0 2.2-.9849 2.2-2.2 0-1.215-.985-2.2-2.2-2.2s-2.2.985-2.2 2.2c0 1.2151.985 2.2 2.2 2.2z"/><path d="m31.66 51.93c1.215 0 2.2-.9849 2.2-2.2 0-1.215-.985-2.2-2.2-2.2s-2.2.985-2.2 2.2c0 1.2151.985 2.2 2.2 2.2z"/><path d="m46.38 47.53c-.4351 0-.8605.129-1.2223.3707-.3617.2418-.6437.5854-.8102.9874s-.2101.8443-.1252 1.2711c.0848.4267.2944.8187.6021 1.1264.3076.3077.6996.5172 1.1264.6021s.8691.0413 1.2711-.1252.7456-.4485.9873-.8103c.2418-.3617.3708-.7871.3708-1.2222 0-.5835-.2318-1.1431-.6444-1.5557-.4125-.4125-.9721-.6443-1.5556-.6443z"/><path d="m61.1101 47.53c-.4352 0-.8605.129-1.2223.3707-.3618.2418-.6438.5854-.8103.9874s-.2101.8443-.1252 1.2711c.0849.4267.2944.8187.6021 1.1264s.6997.5172 1.1265.6021c.4267.0849.869.0413 1.271-.1252s.7456-.4485.9874-.8103c.2417-.3617.3707-.7871.3707-1.2222-.0026-.5827-.2352-1.1407-.6472-1.5528-.4121-.412-.9701-.6446-1.5527-.6472z"/><path d="m75.84 51.93c1.215 0 2.2-.9849 2.2-2.2 0-1.215-.985-2.2-2.2-2.2s-2.2.985-2.2 2.2c0 1.2151.985 2.2 2.2 2.2z"/><path d="m2.2 35.65c-.43512 0-.86045.129-1.222242.3708-.361788.2417-.643775.5853-.810288.9873-.16651253.402-.2100856.8443-.1251981 1.2711.0848871.4268.2944211.8188.6020961 1.1264.307676.3077.699672.5172 1.126432.6021s.86911.0413 1.27111-.1252c.40199-.1665.74559-.4485.98733-.8102.24174-.3618.37076-.7872.37076-1.2223.00132-.2893-.05467-.576-.16477-.8435-.11009-.2675-.27208-.5105-.47663-.7151-.20456-.2045-.44761-.3666-.71512-.4766-.26752-.1101-.5542-.1661-.84348-.1648z"/><path d="m16.97 35.65c-.4351 0-.8604.129-1.2222.3708-.3618.2417-.6438.5853-.8103.9873s-.2101.8443-.1252 1.2711c.0849.4267.2944.8187.6021 1.1264s.6997.5172 1.1264.6021c.4268.0849.8691.0413 1.2711-.1252s.7456-.4485.9874-.8103c.2417-.3618.3707-.7871.3707-1.2222 0-.5835-.2318-1.1431-.6443-1.5557-.4126-.4125-.9722-.6443-1.5557-.6443z"/><path d="m31.65 35.65c-.4351 0-.8605.129-1.2222.3708-.3618.2417-.6438.5853-.8103.9873s-.2101.8443-.1252 1.2711c.0849.4267.2944.8187.6021 1.1264.3076.3077.6997.5172 1.1264.6021.4268.0849.8691.0413 1.2711-.1252s.7456-.4485.9873-.8103c.2418-.3618.3708-.7871.3708-1.2222 0-.5835-.2318-1.1431-.6443-1.5557-.4126-.4125-.9722-.6443-1.5557-.6443z"/><path d="m46.38 35.65c-.4351 0-.8605.129-1.2223.3708-.3617.2417-.6437.5853-.8102.9873s-.2101.8443-.1252 1.2711c.0848.4268.2944.8188.6021 1.1264.3076.3077.6996.5172 1.1264.6021s.8691.0413 1.2711-.1252.7456-.4485.9873-.8102c.2418-.3618.3708-.7872.3708-1.2223.0013-.2893-.0547-.576-.1648-.8435s-.272-.5105-.4766-.7151c-.2046-.2045-.4476-.3666-.7151-.4766-.2675-.1101-.5542-.1661-.8435-.1648z"/><path d="m61.1101 35.65c-.4352 0-.8605.129-1.2223.3708-.3618.2417-.6438.5853-.8103.9873s-.2101.8443-.1252 1.2711c.0849.4267.2944.8187.6021 1.1264s.6997.5172 1.1265.6021c.4267.0849.869.0413 1.271-.1252s.7456-.4485.9874-.8103c.2417-.3618.3707-.7871.3707-1.2222 0-.5835-.2317-1.1431-.6443-1.5557-.4126-.4125-.9722-.6443-1.5556-.6443z"/><path d="m75.83 35.65c-.4347.002-.859.1327-1.2195.3756-.3605.243-.6409.5872-.8059.9894s-.2071.8442-.1211 1.2703.2963.8172.6044 1.1238c.3081.3067.7001.5152 1.1266.5993s.8683.04 1.2697-.1268.7444-.4488.9857-.8104.3701-.7865.3701-1.2212c0-.2898-.0572-.5766-.1684-.8442s-.2741-.5106-.4795-.715c-.2053-.2044-.449-.3663-.7171-.4762-.2681-.11-.5552-.1659-.845-.1646z"/><path d="m2.2 28.17c1.21503 0 2.2-.985 2.2-2.2s-.98497-2.2-2.2-2.2c-1.215026 0-2.2.985-2.2 2.2s.984974 2.2 2.2 2.2z"/><path d="m16.93 28.17c1.215 0 2.2-.985 2.2-2.2s-.985-2.2-2.2-2.2-2.2.985-2.2 2.2.985 2.2 2.2 2.2z"/><path d="m31.66 28.17c1.215 0 2.2-.985 2.2-2.2s-.985-2.2-2.2-2.2-2.2.985-2.2 2.2.985 2.2 2.2 2.2z"/><path d="m46.38 23.77c-.4351 0-.8605.129-1.2223.3708-.3617.2417-.6437.5853-.8102.9873s-.2101.8443-.1252 1.2711c.0848.4268.2944.8188.6021 1.1264.3076.3077.6996.5172 1.1264.6021s.8691.0413 1.2711-.1252.7456-.4485.9873-.8102c.2418-.3618.3708-.7872.3708-1.2223.0013-.2893-.0547-.576-.1648-.8435s-.272-.5105-.4766-.7151-.4476-.3665-.7151-.4766-.5542-.1661-.8435-.1648z"/><path d="m61.1101 23.77c-.4352 0-.8605.129-1.2223.3707-.3618.2418-.6438.5854-.8103.9874s-.2101.8443-.1252 1.2711c.0849.4267.2944.8187.6021 1.1264s.6997.5172 1.1265.6021c.4267.0849.869.0413 1.271-.1252s.7456-.4485.9874-.8103c.2417-.3618.3707-.7871.3707-1.2222 0-.5835-.2317-1.1431-.6443-1.5557-.4126-.4125-.9722-.6443-1.5556-.6443z"/><path d="m75.84 28.17c1.215 0 2.2-.985 2.2-2.2s-.985-2.2-2.2-2.2-2.2.985-2.2 2.2.985 2.2 2.2 2.2z"/><path d="m2.2 16.28c1.21503 0 2.2-.985 2.2-2.2s-.98497-2.2-2.2-2.2c-1.215026 0-2.2.985-2.2 2.2s.984974 2.2 2.2 2.2z"/><path d="m16.93 16.28c1.215 0 2.2-.985 2.2-2.2s-.985-2.2-2.2-2.2-2.2.985-2.2 2.2.985 2.2 2.2 2.2z"/><path d="m31.66 16.28c1.215 0 2.2-.985 2.2-2.2s-.985-2.2-2.2-2.2-2.2.985-2.2 2.2.985 2.2 2.2 2.2z"/><path d="m46.38 11.88c-.4375-.002-.8658.1259-1.2305.3676-.3647.2416-.6496.5861-.8184.9897s-.214.8483-.1298 1.2776c.0841.4294.2938.8241.6025 1.1342.3086.3101.7024.5215 1.1314.6076.4289.0861.8738.043 1.2782-.124s.7502-.4502.9935-.8139c.2433-.3636.3731-.7913.3731-1.2288.0013-.2898-.0546-.5769-.1646-.845-.1099-.2681-.2718-.5118-.4762-.7171-.2044-.2054-.4474-.3683-.715-.4795-.2675-.1112-.5544-.1684-.8442-.1684z"/><path d="m61.11 11.88c-.4375-.002-.8658.1259-1.2305.3676-.3647.2416-.6496.5861-.8184.9897s-.214.8483-.1298 1.2776c.0841.4294.2938.8241.6025 1.1342.3086.3101.7024.5215 1.1314.6076.4289.0861.8738.043 1.2782-.124s.7502-.4502.9934-.8139c.2433-.3636.3732-.7913.3732-1.2288 0-.5844-.2314-1.145-.6437-1.5592s-.9719-.6482-1.5563-.6508z"/><path d="m75.84 16.28c1.215 0 2.2-.985 2.2-2.2s-.985-2.2-2.2-2.2-2.2.985-2.2 2.2.985 2.2 2.2 2.2z"/><path d="m2.19998-.0000384c-.43752-.00197974-.86577.1259534-1.230518.3675844-.364746.241631-.64957.5861-.818374.989744-.1688046.40365-.2139935.8483-.1298528 1.27765.0841408.42936.2938208.82408.6024938 1.13416.308672.31007.702441.52154 1.131411.60763s.87383.04292 1.27824-.12405.75016-.45023.99344-.81388c.24328-.36364.37315-.79133.37315-1.22885.00132-.28975-.05461-.5769-.16458-.84497s-.2718-.511781-.47622-.71713-.4474-.368277-.71497-.479462-.55447-.16842939-.84422-.1684264z"/><path d="m16.97-.0000384c-.4375-.00197974-.8658.1259534-1.2305.3675844-.3648.241631-.6496.5861-.8184.989744-.1688.40365-.214.8483-.1298 1.27765.0841.42936.2938.82408.6024 1.13416.3087.31007.7025.52154 1.1315.60763.4289.08609.8738.04292 1.2782-.12405s.7502-.45023.9934-.81388c.2433-.36364.3732-.79133.3732-1.22885 0-.5844-.2315-1.145-.6438-1.559171-.4123-.414169-.9718-.64817306-1.5562-.6508174z"/><path d="m31.65-.0000384c-.4375-.00197974-.8658.1259534-1.2305.3675844-.3648.241631-.6496.5861-.8184.989744-.1688.40365-.214.8483-.1299 1.27765.0842.42936.2939.82408.6026 1.13416.3086.31007.7024.52154 1.1313.60763.429.08609.8739.04292 1.2783-.12405s.7501-.45023.9934-.81388c.2433-.36364.3732-.79133.3732-1.22885 0-.5844-.2315-1.145-.6438-1.559171-.4122-.414169-.9718-.64817306-1.5562-.6508174z"/><path d="m46.38-.0000384c-.4375-.00197974-.8658.1259534-1.2305.3675844s-.6496.5861-.8184.989744c-.1688.40365-.214.8483-.1298 1.27765.0841.42936.2938.82408.6025 1.13416.3086.31007.7024.52154 1.1314.60763.4289.08609.8738.04292 1.2782-.12405s.7502-.45023.9935-.81388c.2433-.36364.3731-.79133.3731-1.22885.0013-.28975-.0546-.5769-.1646-.84497-.1099-.26807-.2718-.511781-.4762-.71713s-.4474-.368277-.715-.479462c-.2675-.111185-.5544-.16842939-.8442-.1684264z"/><path d="m61.11-.0000384c-.4375-.00197974-.8658.1259534-1.2305.3675844s-.6496.5861-.8184.989744c-.1688.40365-.214.8483-.1298 1.27765.0841.42936.2938.82408.6025 1.13416.3086.31007.7024.52154 1.1314.60763.4289.08609.8738.04292 1.2782-.12405s.7502-.45023.9934-.81388c.2433-.36364.3732-.79133.3732-1.22885 0-.5844-.2314-1.145-.6437-1.559171-.4123-.414169-.9719-.64817306-1.5563-.6508174z"/><path d="m75.83 0c-.4371 0-.8644.129629-1.2278.372467s-.6467.587997-.814.991823c-.1672.40382-.211.84816-.1257 1.27685.0852.4287.2957.82249.6048 1.13157.3091.30907.7029.51955 1.1315.60482.4287.08528.8731.04151 1.2769-.12576s.749-.45053.9918-.81396c.2429-.36344.3725-.79072.3725-1.22782 0-.58613-.2329-1.14823-.6473-1.562682-.4145-.414455-.9766-.647308-1.5627-.647308z"/></g></svg>