<svg fill="none" height="23" viewBox="0 0 25 23" width="25" xmlns="http://www.w3.org/2000/svg"><g fill="#c5c7d3"><path d="m23.719 0h-14.73432c-.59536 0-1.07819.483057-1.07819 1.07819v4.30896c0 .59586.48256 1.07818 1.07819 1.07818h14.73432c.5951 0 1.0782-.4823 1.0782-1.07818v-4.30896c-.0003-.595114-.4833-1.07819-1.0784-1.07819z"/><path d="m23.7188 8.26636h-14.73436c-.59536 0-1.07819.48305-1.07819 1.07818v4.31246c0 .5958.48256 1.0782 1.07819 1.0782h14.73436c.5951 0 1.0782-.4824 1.0782-1.0782v-4.31246c-.0003-.59536-.4834-1.07818-1.0785-1.07818z"/><path d="m23.719 16.5312h-14.73432c-.59536 0-1.07819.4831-1.07819 1.0782v4.3124c0 .5959.48256 1.0782 1.07819 1.0782h14.73432c.5951 0 1.0782-.4823 1.0782-1.0782v-4.3124c-.0003-.5951-.4833-1.0782-1.0784-1.0782z"/><path d="m5.39087 0h-4.31268c-.595364 0-1.07819.483057-1.07819 1.07819v4.30896c0 .59586.482557 1.07818 1.07819 1.07818h4.31242c.59536 0 1.07819-.4823 1.07819-1.07818v-4.30896c0-.595114-.48256-1.07819-1.07793-1.07819z"/><path d="m5.39087 8.26636h-4.31268c-.595364 0-1.07819.48305-1.07819 1.07818v4.31246c0 .5958.482557 1.0782 1.07819 1.0782h4.31242c.59536 0 1.07819-.4824 1.07819-1.0782v-4.31246c0-.59536-.48256-1.07818-1.07793-1.07818z"/><path d="m5.39087 16.5312h-4.31268c-.595364 0-1.07819.4831-1.07819 1.0782v4.3124c0 .5959.482557 1.0782 1.07819 1.0782h4.31242c.59536 0 1.07819-.4823 1.07819-1.0782v-4.3124c0-.5951-.48256-1.0782-1.07793-1.0782z"/></g></svg>