<svg fill="none" height="277" viewBox="0 0 490 277" width="490" xmlns="http://www.w3.org/2000/svg"><path d="m219.924 250.299c-72.819-6.936-142.7634-34.83-123.947-106.333 4.752-18.062 17.107-34.802 33.5-44.6123 15.878-9.5007 34.516-12.2705 52.175-11.6849 41.298 1.3731 79.533 17.2822 121.42 15.1242 36.041-1.858 66.202-29.3501 101.614-35.7311 14.347-2.5847 29.71-1.3192 40.513 6.3675 35.822 25.4969 39.672 90.0366-5.863 132.6366-32.964 30.842-65.074 38.851-109.516 46.962-27.489 5.021-70.156 1.054-109.896-2.729z" fill="#bfa564" opacity=".09"/><path d="m182.348 276.432h-24.406l-5.274-51.983h34.954z" fill="#fff"/><path d="m172.228 273.665-10.106-62.759-14.701 5.391-.454-1.238 16.201-5.94 10.363 64.338z" fill="#7252b7"/><path d="m178.835 273.834h-17.379l-3.756-37.953c11.331 7.579 13.529-2.309 24.887 0z" fill="#ff864d" opacity=".8"/><path d="m7.14154 23.1929h52.84136c3.9443 0 7.1416 3.1972 7.1416 7.1415v29.1754c0 3.9443-3.1973 7.1415-7.1416 7.1415h-4.3347c-1.4606 5.0853-3.9915 13.2263-3.9915 13.2263l-6.1689-13.2263h-38.34626c-3.94434 0-7.14154-3.1972-7.14154-7.1415v-29.1754c0-3.9443 3.1972-7.1415 7.14154-7.1415z" fill="#5abcf7"/><path d="m10.5356 36.0327h46.0498v-3.6145h-46.0498z" fill="#fff"/><path d="m10.5356 46.4832h46.0498v-3.6146h-46.0498z" fill="#fff"/><path d="m10.5356 56.9371h46.0498v-3.6145h-46.0498z" fill="#fff"/><path d="m94.8728 139.706s-8.7907-29.078-11.2071-19.85-4.9708 43.129-1.0971 47.023c4.8799 4.91 10.5878 9.076 16.8913 12.549 3.5241-7.333 6.3241-17.217 7.6531-32.281-4.032-2.023-8.1142-4.476-12.2402-7.441z" fill="#ffba9a"/><path d="m272.419 96.0522c-15.822 1.4639-44.825 8.7908-72.658 32.5208-14.956 12.752-50.882 39.517-92.648 18.574-1.329 15.064-4.129 24.948-7.653 32.282 40.244 22.168 105.006 15.824 136.921-9.252l47.463-33.84z" fill="#5abcf7"/><path d="m111.505 153.047c.918 7.178-.058 14.35-2.861 21.024-.219.521.633.747.848.232 2.834-6.741 3.823-14.007 2.894-21.256-.074-.552-.955-.559-.881 0z" fill="#36295b"/><path d="m52.8983 146.551c-.3904 1.875-4.8833 2.524-10.0291 1.451-5.1492-1.074-11.584-4.005-11.1936-5.883.3904-1.875 7.4647-1.986 12.6105-.912 5.1492 1.077 9.0026 3.466 8.6122 5.344z" fill="#ffba9a"/><path d="m74.8848 174.505-30.2321-1.754c-2.7159-.158-4.7924-2.487-4.6342-5.203l3.7188-64.162c.1582-2.716 2.4871-4.7929 5.2031-4.6347l30.2321 1.7537c2.7159.158 4.7924 2.487 4.6342 5.203l-3.7188 64.163c-.1582 2.715-2.4871 4.792-5.2031 4.634z" fill="#5abcf7"/><path d="m72.8623 161.985-24.7531-1.433c-2.1573-.125-3.803-1.973-3.6785-4.13l2.8708-49.53c.1245-2.157 1.9721-3.803 4.1294-3.678l24.7531 1.434c2.1573.124 3.803 1.972 3.6751 4.129l-2.8708 49.53c-.1245 2.157-1.9721 3.803-4.126 3.678z" fill="#fff"/><g fill="#5abcf7"><path d="m59.9522 122.178-8.9959-.521c-.5621-.034-.9895-.515-.9592-1.077l.5452-9.434c.0337-.562.5149-.989 1.077-.959l8.9959.522c.562.033.9895.515.9592 1.077l-.5486 9.433c-.0303.562-.5116.99-1.0736.959z" opacity=".6"/><path d="m59.1846 137.999-8.9959-.521c-.562-.034-.9894-.515-.9592-1.077l.5453-9.434c.0336-.562.5149-.989 1.0769-.959l8.9959.522c.5621.034.9895.515.9592 1.077l-.5486 9.433c-.0303.562-.5149.99-1.0736.959z" opacity=".6"/><path d="m73.9053 138.659-8.9959-.522c-.562-.033-.9894-.515-.9592-1.077l.5453-9.433c.0336-.562.5149-.989 1.0769-.959l8.9959.522c.5621.033.9895.514.9592 1.076l-.5486 9.434c-.0303.562-.5115.989-1.0736.959z" opacity=".6"/><path d="m74.6761 123.057-8.9959-.522c-.5621-.034-.9895-.515-.9592-1.077l.5486-9.433c.0336-.562.5149-.99 1.0769-.959l8.996.521c.562.034.9894.515.9591 1.077l-.5452 9.434c-.037.562-.5216.992-1.0803.959z" opacity=".6"/></g><path d="m64.8153 170.106-9.6522-.559c-.9692-.057-1.7096-.888-1.6524-1.857l.0505-.879c.0572-.969.8884-1.709 1.8577-1.652l9.6522.559c.9693.057 1.7097.888 1.6524 1.857l-.0504.879c-.0573.969-.8885 1.709-1.8578 1.652z" fill="#fff"/><path d="m49.0615 127.698c-.2827 1.932-3.4631 2.998-5.866 2.648-2.403-.353-4.1194-2.204-3.8367-4.136s2.4602-3.214 4.8598-2.864c2.4029.354 5.1256 2.42 4.8429 4.352z" fill="#ffba9a"/><path d="m47.9106 132.52c-.2827 1.932-3.463 2.999-5.866 2.649-2.4029-.353-4.1193-2.204-3.8366-4.136s2.4601-3.214 4.8597-2.864c2.403.353 5.1256 2.42 4.8429 4.351z" fill="#ffba9a"/><path d="m46.5847 138.531c-.2827 1.932-3.4631 2.999-5.866 2.649-2.403-.353-4.1194-2.205-3.8367-4.136.2827-1.932 2.4602-3.214 4.8598-2.864 2.4063.353 5.1256 2.419 4.8429 4.351z" fill="#ffba9a"/><path d="m291.315 96.3449 32.127 5.8631c20.934 3.819 39.979 14.71 53.666 31.006 30.737 36.599 44.876 73.293 34.917 91.457-15.559 28.374-62.695 51.855-62.695 51.855h-135.653c-6.445-34.129-8.646-69.74-8.935-112.505l48.342-51.417z" fill="#5abcf7"/><path d="m259.69 118.624c11.709 9 29.078 8.67 40.497-.649.438-.357-.185-.976-.623-.623-11.136 9.087-28.058 9.255-39.433.512-.448-.343-.885.421-.441.76z" fill="#36295b"/><path d="m341.037 157.3c5.782 9.619 11.564 19.238 17.343 28.853.289.484 1.05.043.76-.445-5.782-9.618-11.564-19.237-17.342-28.852-.293-.484-1.053-.04-.761.444z" fill="#36295b"/><path d="m206.028 171.011c4.16-4.573 10.116-7.255 16.312-7.269 3.002-.007 6.664.478 9.037 2.491 1.494 1.268 2.372 3.146 1.366 5.041-1.164 2.191-4.076 2.171-4.702-.458-.955-4.035 4.052-5.899 7.014-6.855 3.463-1.118 7.081-1.727 10.719-1.807 3.332-.075 6.832.181 10.029 1.171 1.747.542 3.588 1.46 4.426 3.18.717 1.467.407 3.642-1.084 4.5-1.605.925-3.019-.35-3.423-1.912-.387-1.504.017-3.036 1.155-4.086 2.477-2.291 6.613-1.978 9.729-2.063 3.618-.097 7.236-.195 10.854-.289 3.403-.091 7.438-.545 10.241 1.787 1.548 1.286 2.595 3.497 1.407 5.385-1.545 2.443-5.028 1.743-5.105-1.276-.105-4.065 4.661-5.27 7.814-5.96 3.672-.804 7.418-1.249 11.177-1.319 3.015-.057 6.297-.108 9.188.875 1.794.609 3.796 1.837 4.213 3.836.33 1.586-.457 3.756-1.972 4.466-2.783 1.306-1.817-3.217-.996-4.378 1.349-1.908 3.712-2.595 5.913-2.908 3.985-.569 8.094-.616 12.109-.885 4.19-.279 8.383-.555 12.574-.835.562-.037.565-.915 0-.878-6.22.414-12.439.825-18.659 1.239-4.153.275-9.999-.078-12.698 3.823-1.245 1.8-1.999 6.936 1.676 5.825 2.568-.777 3.652-4.405 2.575-6.673-1.706-3.588-6.529-4.153-9.996-4.325-5.701-.283-11.59.232-17.113 1.713-3.302.885-7.269 2.941-6.627 7.01.522 3.288 4.207 4.113 6.301 1.622 2.436-2.897.141-6.626-2.764-8.046-2.032-.993-4.381-1.071-6.599-1.04-3.029.043-6.061.158-9.09.239-4.305.114-10.487-.731-14.226 1.999-2.191 1.598-2.881 4.849-1.121 7.067 1.757 2.215 4.776 1.107 5.56-1.359 1.174-3.696-2.056-6.196-5.21-7.172-4.954-1.535-10.605-1.525-15.676-.7-3.924.636-10.063 1.797-12.469 5.445-1.626 2.464-.455 7.65 3.341 6.522 3.834-1.141 3.225-6.108.741-8.181-3.507-2.931-9.201-3.096-13.479-2.356-5.041.872-9.652 3.406-13.092 7.189-.37.404.249 1.026.63.605z" fill="#36295b"/><path d="m206.206 159.189c-.966 12.852-1.938 25.789-1.026 38.672.04.562.919.566.878 0-.912-12.883.061-25.82 1.027-38.672.04-.563-.838-.559-.879 0z" fill="#36295b"/><path d="m483.431 226.279c-3.514 0-6.371-2.857-6.371-6.37 0-3.514 2.857-6.371 6.371-6.371 3.513 0 6.374 2.857 6.374 6.371 0 3.513-2.857 6.37-6.374 6.37zm0-11.863c-3.029 0-5.493 2.464-5.493 5.493 0 3.028 2.464 5.492 5.493 5.492s5.492-2.464 5.492-5.492c0-3.029-2.46-5.493-5.492-5.493z" fill="#bfa564"/><path d="m59.2764 225.549c-3.5136 0-6.3709-2.857-6.3709-6.371 0-3.513 2.8573-6.371 6.3709-6.371 3.5135 0 6.3708 2.858 6.3708 6.371 0 3.514-2.8573 6.371-6.3708 6.371zm0-11.863c-3.029 0-5.4925 2.463-5.4925 5.492s2.4635 5.493 5.4925 5.493c3.0289 0 5.4924-2.464 5.4924-5.493s-2.4635-5.492-5.4924-5.492z" fill="#bfa564"/><path d="m284.376 84.7913h41.002c9.228-.8549 21.314-18.5034 9.888-28.7984-4.086-3.6819-7.35-6.3271-9.71-10.4532-1.928-3.3756-3.362-7.0541-4.442-10.8705-11.682-41.23721-45.32-34.173066-45.32-34.173066s-22.34-5.987194-33.257 23.635766c-6.593 17.8909-6.152 21.3237-14.283 31.1273-9.602 11.5772-6.371 25.4901-.219 30.3936-.004 0 56.341-.4947 56.341-.8615z" fill="#36295b"/><path d="m297.828 67.9201v26.9743c0 9.8106-7.569 18.0086-17.359 18.6516-.159.01-.317.017-.485.027-10.574.572-19.372-8.087-19.372-18.6786v-26.9743z" fill="#ffba9a"/><path d="m297.828 67.9201v5.6069c-7.663 24.7868-27.782 23.4843-37.216 2.4333v-8.0435h37.216z" fill="#36295b"/><path d="m305.818 47.1248c-.219 22.4141-13.196 35.8895-25.709 36.4751-14.064.6596-30.983-12.0854-31.424-38.2352-.323-19.1529 14.933-33.6211 29.738-33.6211 14.808 0 27.583 16.2249 27.395 35.3812z" fill="#ffba9a"/><path d="m247.151 44.4897c2.635-6.593 8.259-20.1693 23.511-21.7545 9.228 9.3762 25.931 15.0134 38.673 13.987l-6.152-20.5833-32.962-8.79065-22.414 13.62345-4.395 16.9183z" fill="#36295b"/><path d="m249.275 59.5771c5.34 0 9.669-4.329 9.669-9.669 0-5.3401-4.329-9.6691-9.669-9.6691s-9.669 4.329-9.669 9.6691c0 5.34 4.329 9.669 9.669 9.669z" fill="#ffba9a"/><path d="m305.071 59.5771c5.34 0 9.669-4.329 9.669-9.669 0-5.3401-4.329-9.6691-9.669-9.6691s-9.669 4.329-9.669 9.6691c0 5.34 4.329 9.669 9.669 9.669z" fill="#ffba9a"/><path d="m277.692 56.0871c-.848 0-1.538-.6899-1.538-1.538v-10.1705c0-.8481.69-1.538 1.538-1.538s1.538.6899 1.538 1.538v10.1705c0 .8481-.69 1.538-1.538 1.538z" fill="#804327"/><path d="m272.56 35.1437c.511 1.151-1.548 3.1905-4.608 4.5502-3.059 1.3596-6 2.4433-6.465.3803-.393-1.7467 1.548-3.1905 4.608-4.5502 3.059-1.3596 5.953-1.5313 6.465-.3803z" fill="#36295b"/><path d="m286.086 36.3789c-.289 1.2284 2.12 2.8438 5.378 3.6077 3.258.764 6.351 1.2756 6.421-.838.061-1.7904-2.12-2.8438-5.378-3.6077-3.257-.7674-6.131-.3904-6.421.838z" fill="#36295b"/><path d="m283.764 67.2975c.982-.4375 1.339-1.5246 1.184-2.6284-.225-1.6054-.811-2.8944-2.567-3.9208-2.104-1.2251-4.901-1.3395-7.142-.4207-2.188.8986-4.739 3.8703-3.551 6.4314.647 1.39 2.814.6529 3.891.3635 1.262-.3399 2.561-.5419 3.867-.3971 1.262.1413 2.51.9591 3.789.7303.196-.0337.371-.0875.529-.1582z" fill="#fff"/><g fill="#36295b"><path d="m272.854 44.9287c.237-1.4622-.755-2.8403-2.217-3.0782s-2.84.7545-3.078 2.2166c-.238 1.4622.754 2.8403 2.216 3.0782s2.841-.7545 3.079-2.2166z"/><path d="m293.746 44.9289c.238-1.4621-.754-2.8403-2.216-3.0782s-2.841.7545-3.078 2.2167c-.238 1.4621.754 2.8402 2.216 3.0782 1.462.2379 2.84-.7545 3.078-2.2167z"/><path d="m259.569 5.59484c-14.128 2.5342-18.479 18.39906-23.824 29.48836-1.645 3.4193-3.56 6.7477-6.115 9.5747-2.396 2.652-5.334 4.7084-7.986 7.081-4.89 4.3718-7.754 10.2681-6.731 16.9284 1.08 7.0271 6.613 12.6003 13.459 14.2158.548.1312.784-.7169.232-.8482-6.442-1.5178-11.658-6.6737-12.792-13.2734-.64-3.7088.026-7.6598 1.851-10.9513 1.608-2.8976 4.105-5.0953 6.626-7.1785 2.413-1.9958 4.846-3.9477 6.846-6.381 1.888-2.2986 3.422-4.853 4.765-7.5016 2.881-5.6877 4.846-11.823 8.06-17.3457 3.534-6.0747 8.636-11.67148 15.842-12.96382.558-.0976.323-.94571-.233-.84474z"/><path d="m248.85 50.4095c-.394-2.551-2.457-4.6141-5.004-5.0146-.552-.0875-.791.7607-.233.8482 2.282.3567 4.039 2.1168 4.392 4.3986.085.5587.933.3231.845-.2322z"/><path d="m306.932 50.423c.07-1.9284 1.336-3.6179 3.17-4.2237.535-.175.306-1.0265-.232-.8481-2.215.7303-3.729 2.7361-3.817 5.0718-.02.5654.859.562.879 0z"/></g><path d="m294.069 62.6902c3.636 0 6.583-2.9473 6.583-6.5829s-2.947-6.5829-6.583-6.5829-6.583 2.9473-6.583 6.5829 2.947 6.5829 6.583 6.5829z" fill="#ff9498" opacity=".4"/><path d="m263.594 62.6902c3.636 0 6.583-2.9473 6.583-6.5829s-2.947-6.5829-6.583-6.5829c-3.635 0-6.583 2.9473-6.583 6.5829s2.948 6.5829 6.583 6.5829z" fill="#ff9498" opacity=".4"/><g fill="#fff"><path d="m266.119 55.8414c-5.614 0-10.181-4.567-10.181-10.1806s4.567-10.1806 10.181-10.1806c5.613 0 10.18 4.567 10.18 10.1806s-4.567 10.1806-10.18 10.1806zm0-19.0419c-4.887 0-8.862 3.9746-8.862 8.8613s3.975 8.8613 8.862 8.8613c4.886 0 8.861-3.9746 8.861-8.8613.003-4.8867-3.975-8.8613-8.861-8.8613z"/><path d="m288.97 55.8414c-5.613 0-10.18-4.567-10.18-10.1806s4.567-10.1806 10.18-10.1806c5.614 0 10.181 4.567 10.181 10.1806.003 5.6136-4.564 10.1806-10.181 10.1806zm0-19.0419c-4.886 0-8.861 3.9746-8.861 8.8613s3.975 8.8613 8.861 8.8613c4.887 0 8.865-3.9746 8.865-8.8613s-3.975-8.8613-8.865-8.8613z"/><path d="m249.021 39.4606-.396 1.2582 8.13 2.5634.396-1.2582z"/><path d="m279.817 42.3627h-4.689v1.3192h4.689z"/><path d="m305.172 39.6255-7.469 2.3414.394 1.2589 7.47-2.3414z"/></g><path d="m270.783 22.6141c2.39 2.2515 4.883 4.3885 7.492 6.3674 2.615 1.9655 5.337 3.7896 8.222 5.3209 2.867 1.5548 5.876 2.8505 8.992 3.8164.777.2491 1.568.4476 2.353.6731.79.1986 1.591.3601 2.389.5419l2.413.4341 2.44.2995-.024.3433-2.473-.1649-2.464-.3063c-.811-.1581-1.629-.2995-2.44-.4745-.804-.2053-1.615-.3837-2.413-.6091-3.187-.9222-6.266-2.2112-9.187-3.7828-2.908-1.5953-5.681-3.4328-8.263-5.4992-2.594-2.053-5.011-4.3179-7.279-6.7108z" fill="#36295b"/><path d="m362.068 187.583h-113.285v88.926h113.285z" fill="#fff"/><path d="m362.068 269.913h-113.285v6.593h113.285z" fill="#36295b"/><path d="m310.671 232.186h-10.484v-10.83h10.484zm-9.605-.879h8.726v-9.07h-8.726z" fill="#013d55"/></svg>