<svg fill="none" height="59" viewBox="0 0 215 59" width="215" xmlns="http://www.w3.org/2000/svg"><circle r="28.761" stroke="#5abcf7" stroke-dasharray="1.89 1.89" stroke-width=".942982" transform="matrix(-1 0 0 1 29.2324 29.2325)"/><circle fill="#5abcf7" r="24.5175" transform="matrix(-1 0 0 1 29.2325 29.2325)"/><path d="m21.3137 16.9738c.8674 0 1.7337.3302 2.3988.9955l1.5729 1.5728-4.7981 4.7987-1.5727-1.5731c-1.3305-1.3304-1.3305-3.468 0-4.7984.665-.6653 1.5314-.9955 2.3991-.9955zm4.6486 3.2455 14.1949 14.1964-4.7981 4.7986-14.195-14.1964zm14.6631 15.0924.8659 5.2366-5.2361-.866z" fill="#fff"/><g fill="#444"><path d="m79.6389 39.4298h-4.1699v-19.9883h11.457v3.4727h-7.2871v5.1543h6.7813v3.459h-6.7813zm15.0391 0h-4.1699v-21.2734h4.1699zm10.691-15.5723c1.413 0 2.63.2735 3.651.8204 1.021.5377 1.809 1.3216 2.365 2.3515.556 1.03.834 2.2878.834 3.7735v2.0234h-9.857c.045 1.1758.396 2.1009 1.052 2.7754.666.6653 1.586.998 2.762.998.975 0 1.869-.1002 2.68-.3007.811-.2006 1.645-.5014 2.502-.9024v3.2266c-.757.3737-1.55.6471-2.379.8203-.821.1732-1.819.2597-2.994.2597-1.532 0-2.89-.2825-4.075-.8476-1.175-.5651-2.1005-1.4264-2.775-2.584-.6654-1.1575-.998-2.6159-.998-4.375 0-1.7865.3007-3.2721.9023-4.457.6107-1.194 1.4587-2.0873 2.5427-2.6797 1.085-.6016 2.347-.9024 3.787-.9024zm.028 2.9668c-.811 0-1.486.2598-2.024.7793-.528.5196-.834 1.3353-.916 2.4473h5.852c-.009-.6198-.123-1.1712-.342-1.6543-.21-.4831-.529-.8659-.957-1.1484-.419-.2826-.957-.4239-1.613-.4239zm13.343 4.7989-4.921-7.4785h4.73l2.967 4.8671 2.994-4.8671h4.73l-4.976 7.4785 5.209 7.8066h-4.744l-3.213-5.2363-3.227 5.2363h-4.73zm17.227-7.4785v15.2851h-4.17v-15.2851zm-2.078-5.9883c.62 0 1.153.1458 1.6.4375.446.2825.669.8157.669 1.5996 0 .7747-.223 1.3125-.669 1.6133-.447.2916-.98.4375-1.6.4375-.629 0-1.167-.1459-1.613-.4375-.438-.3008-.657-.8386-.657-1.6133 0-.7839.219-1.3171.657-1.5996.446-.2917.984-.4375 1.613-.4375zm31.801 21.2734h-5.387l-8.695-15.1211h-.123c.036.6289.068 1.2624.095 1.9004.028.638.055 1.276.082 1.9141.028.6289.055 1.2623.082 1.9004v9.4062h-3.787v-19.9883h5.346l8.682 14.9707h.095c-.018-.6198-.041-1.235-.068-1.8457-.027-.6106-.055-1.2213-.082-1.832-.018-.6107-.037-1.2214-.055-1.832v-9.461h3.815zm18.607-7.6699c0 1.276-.173 2.4062-.519 3.3906-.338.9844-.834 1.8184-1.491 2.502-.647.6744-1.431 1.1849-2.351 1.5312-.912.3464-1.942.5195-3.09.5195-1.076 0-2.065-.1731-2.967-.5195-.893-.3463-1.672-.8568-2.338-1.5312-.656-.6836-1.166-1.5176-1.531-2.502-.355-.9844-.533-2.1146-.533-3.3906 0-1.6953.301-3.1309.902-4.3067.602-1.1757 1.458-2.069 2.57-2.6796 1.112-.6107 2.439-.9161 3.979-.9161 1.431 0 2.698.3054 3.801.9161 1.112.6106 1.982 1.5039 2.611 2.6796.638 1.1758.957 2.6114.957 4.3067zm-10.568 0c0 1.0026.109 1.8457.328 2.5293s.56 1.1986 1.025 1.5449c.465.3464 1.071.5195 1.819.5195.738 0 1.335-.1731 1.791-.5195.464-.3463.802-.8613 1.011-1.5449.219-.6836.328-1.5267.328-2.5293 0-1.0117-.109-1.8503-.328-2.5156-.209-.6745-.547-1.1804-1.011-1.5176-.465-.3373-1.071-.5059-1.819-.5059-1.103 0-1.905.3783-2.406 1.1348-.492.7565-.738 1.8913-.738 3.4043zm20.453 4.6211c.456 0 .898-.0456 1.326-.1367.438-.0912.87-.2051 1.299-.3418v3.1035c-.447.2005-1.003.3646-1.668.4922-.656.1367-1.376.205-2.16.205-.912 0-1.732-.1458-2.461-.4375-.72-.3007-1.29-.8157-1.709-1.5449-.41-.7383-.615-1.7636-.615-3.0761v-7.3692h-1.996v-1.7637l2.296-1.3945 1.204-3.2266h2.666v3.254h4.279v3.1308h-4.279v7.3692c0 .5833.164 1.0208.492 1.3125.337.2825.779.4238 1.326.4238zm12.031-12.5235c1.413 0 2.63.2735 3.651.8204 1.02.5377 1.809 1.3216 2.365 2.3515.556 1.03.834 2.2878.834 3.7735v2.0234h-9.858c.046 1.1758.397 2.1009 1.053 2.7754.665.6653 1.586.998 2.762.998.975 0 1.868-.1002 2.679-.3007.812-.2006 1.646-.5014 2.502-.9024v3.2266c-.756.3737-1.549.6471-2.378.8203-.821.1732-1.819.2597-2.995.2597-1.531 0-2.889-.2825-4.074-.8476-1.176-.5651-2.101-1.4264-2.775-2.584-.666-1.1575-.998-2.6159-.998-4.375 0-1.7865.3-3.2721.902-4.457.611-1.194 1.458-2.0873 2.543-2.6797 1.085-.6016 2.347-.9024 3.787-.9024zm.027 2.9668c-.811 0-1.485.2598-2.023.7793-.529.5196-.834 1.3353-.916 2.4473h5.852c-.01-.6198-.123-1.1712-.342-1.6543-.21-.4831-.529-.8659-.957-1.1484-.42-.2826-.957-.4239-1.614-.4239z"/><path d="m77.3246 49.0351h134.846v1.88596h-134.846z"/></g></svg>