<svg fill="none" height="21" viewBox="0 0 26 21" width="26" xmlns="http://www.w3.org/2000/svg"><path clip-rule="evenodd" d="m22.1 5.25127 3.9 5.24953h-2.6c0 5.7986-4.6562 10.4992-10.3999 10.4992-2.5024 0-4.79811-.8922-6.47733-2.4667l1.55316-2.0161c1.29969 1.1788 3.03337 1.858 4.92397 1.858 4.3078 0 7.8-3.5256 7.8-7.8744h-2.6l3.9-5.24953zm-18.04536 10.28913-.15466.2083-3.89998-5.2495h2.59984c0-5.79858 4.6562-10.4992 10.39996-10.4992 2.5023 0 4.7981.892165 6.4773 2.46674l-1.5532 2.01606c-1.2998-1.17894-3.0333-1.85801-4.924-1.85801-4.20007 0-7.62499 3.35099-7.79993 7.87441h2.59998l-2.04849 2.7574z" fill="#c5c7d3" fill-rule="evenodd"/></svg>