<svg width="15" height="15" viewBox="0 0 15 15" fill="none" xmlns="http://www.w3.org/2000/svg">
<path fill-rule="evenodd" clip-rule="evenodd" d="M13.8479 0H1.1521C0.515861 0 0 0.516356 0 1.1521V13.8479C0 14.4841 0.516356 15 1.1521 15H13.8479C14.4841 15 15 14.4836 15 13.8479V1.1521C15 0.515861 14.4836 0 13.8479 0ZM11.0028 5.67877L9.39229 4.06826L4.47722 8.94408L6.10741 10.5743L11.0028 5.67877ZM5.57375 11.0559L3.87135 11.5344C3.65453 11.5954 3.45461 11.3955 3.51556 11.1787L3.99412 9.47638C4.00752 9.42869 4.03287 9.38535 4.06788 9.35046L5.69965 10.9822C5.66464 11.0171 5.6213 11.0426 5.57373 11.0559L5.57375 11.0559ZM11.8184 4.86345C12.0439 4.63805 12.0425 4.27104 11.8216 4.04999L11.0262 3.25477C10.8025 3.03094 10.439 3.03021 10.2112 3.25622L9.80191 3.66211L11.4109 5.27108L11.8184 4.86345Z" fill="#C5C7D3"/>
</svg>
