<svg width="18" height="18" viewBox="0 0 18 18" fill="none" xmlns="http://www.w3.org/2000/svg">
<path d="M9 0C4.02813 0 0 4.02851 0 9C0 13.9715 4.02851 18 9 18C13.9715 18 18 13.9715 18 9C18 4.02851 13.9715 0 9 0ZM13.5028 9.82092H9.8225V13.5031C9.8225 13.9573 9.4543 14.3256 9 14.3256C8.5457 14.3256 8.17927 13.9573 8.17927 13.5031V9.82281H4.49706C4.04086 9.82281 3.67456 9.4546 3.67456 9.0003C3.67456 8.54614 4.041 8.1778 4.49706 8.1778H8.17927V4.49748C8.17927 4.04154 8.54571 3.67512 9 3.67512C9.45429 3.67512 9.8225 4.04156 9.8225 4.49748V8.1778H13.5028C13.959 8.1778 14.3253 8.54615 14.3253 9.0003C14.3253 9.45461 13.9571 9.82092 13.5028 9.82092Z" fill="#C5C7D3"/>
</svg>
